<svg width="135" height="135" viewBox="0 0 135 135" fill="none" xmlns="http://www.w3.org/2000/svg">
<path d="M126.189 67.634L133.595 54.8345C134.485 53.2945 134.727 51.4641 134.268 49.7457C133.809 48.0273 132.686 46.5616 131.147 45.6709L118.334 38.2649V23.5066C118.334 21.7274 117.627 20.0211 116.369 18.7631C115.111 17.505 113.405 16.7982 111.625 16.7982H96.8738L89.4745 3.99203C88.5809 2.45526 87.118 1.33221 85.4025 0.865947C84.5517 0.635287 83.6635 0.57581 82.7895 0.690964C81.9155 0.806118 81.073 1.09361 80.3109 1.53678L67.498 8.94278L54.6851 1.53007C53.1443 0.640532 51.3133 0.39947 49.5948 0.859916C47.8763 1.32036 46.4111 2.4446 45.5215 3.98532L38.1155 16.7982H23.3639C21.5847 16.7982 19.8784 17.505 18.6204 18.7631C17.3623 20.0211 16.6555 21.7274 16.6555 23.5066V38.2582L3.84263 45.6642C3.07809 46.104 2.40799 46.6905 1.87081 47.39C1.33363 48.0895 0.939972 48.8883 0.712444 49.7404C0.484917 50.5926 0.428007 51.4813 0.544985 52.3555C0.661963 53.2297 0.950521 54.0722 1.39408 54.8345L8.80009 67.634L1.39408 80.4335C0.508509 81.9749 0.268238 83.8039 0.725655 85.5217C1.18307 87.2395 2.30108 88.7069 3.83592 89.6038L16.6488 97.0098V111.761C16.6488 113.541 17.3556 115.247 18.6137 116.505C19.8717 117.763 21.578 118.47 23.3572 118.47H38.1155L45.5215 131.283C46.1154 132.298 46.9634 133.141 47.982 133.729C49.0006 134.317 50.1547 134.63 51.3309 134.637C52.4982 134.637 53.6587 134.328 54.6918 133.731L67.4913 126.325L80.3042 133.731C81.8446 134.619 83.6744 134.861 85.3923 134.402C87.1101 133.943 88.5758 132.821 89.4678 131.283L96.8671 118.47H111.619C113.398 118.47 115.104 117.763 116.362 116.505C117.62 115.247 118.327 113.541 118.327 111.761V97.0098L131.14 89.6038C131.903 89.1627 132.572 88.5756 133.108 87.8759C133.644 87.1762 134.037 86.3777 134.265 85.5261C134.492 84.6744 134.549 83.7863 134.433 82.9125C134.317 82.0387 134.03 81.1963 133.589 80.4335L126.189 67.634ZM50.7205 34.0252C53.3901 34.0261 55.95 35.0875 57.8371 36.9758C59.7242 38.8642 60.7839 41.4248 60.783 44.0945C60.7821 46.7641 59.7207 49.324 57.8324 51.2111C55.944 53.0982 53.3834 54.1578 50.7138 54.157C48.0441 54.1561 45.4842 53.0947 43.5971 51.2064C41.71 49.318 40.6504 46.7574 40.6513 44.0877C40.6521 41.4181 41.7135 38.8582 43.6018 36.9711C45.4902 35.084 48.0508 34.0243 50.7205 34.0252ZM52.733 98.4252L41.9996 90.3819L82.2496 36.7153L92.983 44.7586L52.733 98.4252ZM84.2621 101.109C82.9403 101.108 81.6314 100.847 80.4104 100.341C79.1893 99.8348 78.0799 99.093 77.1455 98.158C76.2111 97.223 75.47 96.1131 74.9646 94.8917C74.4591 93.6702 74.1992 92.3612 74.1996 91.0394C74.2001 89.7175 74.4609 88.4087 74.9671 87.1876C75.4734 85.9665 76.2152 84.8571 77.1502 83.9227C78.0852 82.9883 79.1951 82.2472 80.4165 81.7418C81.638 81.2364 82.947 80.9764 84.2688 80.9769C86.9385 80.9778 89.4984 82.0391 91.3855 83.9275C93.2726 85.8158 94.3322 88.3764 94.3313 91.0461C94.3305 93.7157 93.2691 96.2756 91.3807 98.1627C89.4924 100.05 86.9318 101.109 84.2621 101.109Z" fill="#F57920"/>
</svg>
