<svg width="137" height="136" viewBox="0 0 137 136" fill="none" xmlns="http://www.w3.org/2000/svg">
<path d="M69.2408 73.6289C72.6265 73.6288 75.935 74.6409 78.741 76.5354C81.547 78.4299 83.7225 81.1202 84.9879 84.2605C86.2533 87.4008 86.5508 90.8478 85.8421 94.1585C85.1335 97.4692 83.4511 100.492 81.0112 102.84L70.2028 113.235H86.2173V124.552H52.2644L52.2588 114.797L73.1624 94.6797C73.8369 94.0313 74.3401 93.2259 74.627 92.3354C74.9139 91.4449 74.9755 90.4972 74.8064 89.5771C74.6373 88.657 74.2427 87.7931 73.6579 87.0628C73.0731 86.3326 72.3164 85.7587 71.4555 85.3926C70.5945 85.0264 69.6563 84.8795 68.7246 84.9648C67.793 85.0502 66.897 85.3652 66.1169 85.8816C65.3369 86.3981 64.697 87.0999 64.2546 87.9243C63.8123 88.7486 63.5812 89.6698 63.582 90.6053H52.2644C52.2644 86.1029 54.053 81.7849 57.2367 78.6012C60.4204 75.4175 64.7384 73.6289 69.2408 73.6289ZM103.194 73.6289V96.2641H114.511V73.6289H125.829V124.558H114.511V107.582H91.876V73.6289H103.194ZM23.9704 67.9701C23.9635 74.7584 25.486 81.4609 28.425 87.5799C31.364 93.6989 35.644 99.0771 40.9468 103.315V116.987C32.3414 112.021 25.1956 104.876 20.2287 96.2715C15.2617 87.6667 12.6488 77.9055 12.6528 67.9701H23.9704ZM69.2408 11.3821C98.5817 11.3821 122.711 33.7118 125.546 62.3113H114.16C113.011 53.1863 109.11 44.6277 102.977 37.7744C96.843 30.9212 88.7678 26.0985 79.8256 23.948C70.8834 21.7976 61.4983 22.4214 52.9195 25.7365C44.3406 29.0516 36.9747 34.9008 31.8022 42.5055H46.6056V53.8231H12.6528V19.8703H23.9704V34.0117C29.2369 26.9788 36.0708 21.2709 43.9294 17.3416C51.788 13.4123 60.4547 11.3755 69.2408 11.3821Z" fill="#F66661"/>
</svg>
