<svg width="135" height="135" viewBox="0 0 135 135" fill="none" xmlns="http://www.w3.org/2000/svg">
<path d="M126.19 67.634L133.596 54.8345C134.486 53.2945 134.728 51.4641 134.269 49.7457C133.81 48.0274 132.687 46.5616 131.147 45.6709L118.334 38.2649V23.5066C118.334 21.7274 117.627 20.0211 116.369 18.7631C115.111 17.505 113.405 16.7982 111.626 16.7982H96.8743L89.475 3.99204C88.5814 2.45527 87.1185 1.33222 85.403 0.865955C84.5522 0.635295 83.664 0.575818 82.79 0.690972C81.916 0.806126 81.0735 1.09362 80.3114 1.53679L67.4985 8.94279L54.6856 1.53008C53.1448 0.640539 51.3138 0.399478 49.5953 0.859924C47.8768 1.32037 46.4116 2.44461 45.522 3.98533L38.116 16.7982H23.3644C21.5852 16.7982 19.8789 17.505 18.6209 18.7631C17.3628 20.0211 16.656 21.7274 16.656 23.5066V38.2582L3.84311 45.6642C3.07858 46.104 2.40848 46.6905 1.8713 47.39C1.33412 48.0895 0.94046 48.8883 0.712933 49.7405C0.485405 50.5926 0.428495 51.4813 0.545473 52.3555C0.662451 53.2297 0.95101 54.0722 1.39457 54.8345L8.80057 67.634L1.39457 80.4335C0.508997 81.9749 0.268726 83.8039 0.726144 85.5217C1.18356 87.2396 2.30157 88.7069 3.83641 89.6038L16.6493 97.0098V111.761C16.6493 113.541 17.3561 115.247 18.6141 116.505C19.8722 117.763 21.5785 118.47 23.3577 118.47H38.116L45.522 131.283C46.1159 132.298 46.9639 133.141 47.9825 133.729C49.0011 134.317 50.1552 134.63 51.3314 134.637C52.4987 134.637 53.6592 134.328 54.6923 133.731L67.4918 126.325L80.3047 133.731C81.8451 134.62 83.6749 134.861 85.3927 134.402C87.1106 133.943 88.5763 132.821 89.4683 131.283L96.8676 118.47H111.619C113.398 118.47 115.105 117.763 116.363 116.505C117.621 115.247 118.328 113.541 118.328 111.761V97.0098L131.14 89.6038C131.904 89.1627 132.572 88.5756 133.109 87.8759C133.645 87.1762 134.038 86.3777 134.265 85.5261C134.493 84.6744 134.55 83.7863 134.434 82.9125C134.318 82.0387 134.031 81.1963 133.589 80.4335L126.19 67.634ZM50.7209 34.0252C53.3906 34.0261 55.9505 35.0875 57.8376 36.9758C59.7247 38.8642 60.7843 41.4248 60.7835 44.0945C60.7826 46.7641 59.7212 49.324 57.8329 51.2111C55.9445 53.0982 53.3839 54.1578 50.7142 54.157C48.0446 54.1561 45.4847 53.0947 43.5976 51.2064C41.7105 49.318 40.6509 46.7574 40.6517 44.0877C40.6526 41.4181 41.714 38.8582 43.6023 36.9711C45.4907 35.084 48.0513 34.0244 50.7209 34.0252ZM52.7335 98.4252L42.0001 90.382L82.2501 36.7153L92.9835 44.7586L52.7335 98.4252ZM84.2626 101.109C82.9408 101.108 81.6319 100.847 80.4108 100.341C79.1898 99.8348 78.0804 99.093 77.146 98.158C76.2116 97.223 75.4705 96.1131 74.9651 94.8917C74.4596 93.6703 74.1997 92.3612 74.2001 91.0394C74.2006 89.7175 74.4614 88.4087 74.9676 87.1876C75.4739 85.9665 76.2157 84.8571 77.1507 83.9227C78.0857 82.9883 79.1956 82.2473 80.417 81.7418C81.6385 81.2364 82.9475 80.9764 84.2693 80.9769C86.939 80.9778 89.4989 82.0391 91.386 83.9275C93.2731 85.8158 94.3327 88.3764 94.3318 91.0461C94.3309 93.7157 93.2696 96.2756 91.3812 98.1627C89.4929 100.05 86.9323 101.109 84.2626 101.109Z" fill="white"/>
</svg>
