<svg width="137" height="136" viewBox="0 0 137 136" fill="none" xmlns="http://www.w3.org/2000/svg">
<path d="M69.2413 73.6289C72.627 73.6288 75.9354 74.641 78.7415 76.5354C81.5475 78.4299 83.723 81.1202 84.9884 84.2605C86.2537 87.4009 86.5512 90.8478 85.8426 94.1585C85.134 97.4692 83.4516 100.492 81.0116 102.84L70.2033 113.235H86.2177V124.552H52.2649L52.2593 114.797L73.1629 94.6797C73.8374 94.0313 74.3406 93.2259 74.6275 92.3354C74.9144 91.445 74.976 90.4973 74.8069 89.5771C74.6378 88.657 74.2432 87.7931 73.6584 87.0629C73.0736 86.3326 72.3169 85.7587 71.456 85.3926C70.595 85.0265 69.6568 84.8795 68.7251 84.9648C67.7935 85.0502 66.8975 85.3652 66.1174 85.8817C65.3374 86.3981 64.6975 87.0999 64.2551 87.9243C63.8128 88.7486 63.5817 89.6698 63.5825 90.6054H52.2649C52.2649 86.1029 54.0535 81.7849 57.2372 78.6012C60.4209 75.4175 64.7389 73.6289 69.2413 73.6289ZM103.194 73.6289V96.2642H114.512V73.6289H125.829V124.558H114.512V107.582H91.8765V73.6289H103.194ZM23.9709 67.9701C23.9639 74.7584 25.4865 81.4609 28.4255 87.58C31.3645 93.699 35.6444 99.0772 40.9473 103.315V116.987C32.3419 112.021 25.1961 104.876 20.2292 96.2715C15.2622 87.6668 12.6493 77.9055 12.6533 67.9701H23.9709ZM69.2413 11.3821C98.5822 11.3821 122.711 33.7118 125.546 62.3113H114.161C113.012 53.1863 109.111 44.6277 102.977 37.7745C96.8435 30.9213 88.7682 26.0985 79.8261 23.9481C70.8839 21.7976 61.4988 22.4214 52.92 25.7366C44.3411 29.0517 36.9752 34.9008 31.8027 42.5055H46.6061V53.8231H12.6533V19.8703H23.9709V34.0117C29.2374 26.9788 36.0713 21.271 43.9299 17.3417C51.7885 13.4124 60.4552 11.3755 69.2413 11.3821Z" fill="white"/>
</svg>
